<mxfile host="app.diagrams.net" modified="2023-07-22T06:20:15.837Z" agent="Mozilla/5.0 (Windows NT 10.0; Win64; x64) AppleWebKit/537.36 (KHTML, like Gecko) Chrome/115.0.0.0 Safari/537.36" etag="dY3EiuMiCDy4LOUiiaVz" version="21.6.5" type="github">
  <diagram id="C5RBs43oDa-KdzZeNtuy" name="Page-1">
    <mxGraphModel dx="1434" dy="782" grid="1" gridSize="10" guides="1" tooltips="1" connect="1" arrows="1" fold="1" page="1" pageScale="1" pageWidth="827" pageHeight="1169" math="0" shadow="0">
      <root>
        <mxCell id="WIyWlLk6GJQsqaUBKTNV-0" />
        <mxCell id="WIyWlLk6GJQsqaUBKTNV-1" parent="WIyWlLk6GJQsqaUBKTNV-0" />
        <mxCell id="wX1ky1Wckr0ywv3vt5-Z-0" value="" style="image;points=[];aspect=fixed;html=1;align=center;shadow=0;dashed=0;image=img/lib/allied_telesis/computer_and_terminals/Personal_Computer.svg;" vertex="1" parent="WIyWlLk6GJQsqaUBKTNV-1">
          <mxGeometry x="70" y="333.22999999999996" width="55.6" height="75.35" as="geometry" />
        </mxCell>
        <mxCell id="wX1ky1Wckr0ywv3vt5-Z-1" value="" style="endArrow=classic;html=1;rounded=0;" edge="1" parent="WIyWlLk6GJQsqaUBKTNV-1" source="wX1ky1Wckr0ywv3vt5-Z-0" target="wX1ky1Wckr0ywv3vt5-Z-2">
          <mxGeometry width="50" height="50" relative="1" as="geometry">
            <mxPoint x="390" y="430" as="sourcePoint" />
            <mxPoint x="180" y="370" as="targetPoint" />
          </mxGeometry>
        </mxCell>
        <mxCell id="wX1ky1Wckr0ywv3vt5-Z-5" style="edgeStyle=orthogonalEdgeStyle;rounded=0;orthogonalLoop=1;jettySize=auto;html=1;entryX=0.026;entryY=0.504;entryDx=0;entryDy=0;entryPerimeter=0;" edge="1" parent="WIyWlLk6GJQsqaUBKTNV-1" source="wX1ky1Wckr0ywv3vt5-Z-2" target="wX1ky1Wckr0ywv3vt5-Z-6">
          <mxGeometry relative="1" as="geometry">
            <mxPoint x="330" y="370.9000000000001" as="targetPoint" />
          </mxGeometry>
        </mxCell>
        <mxCell id="wX1ky1Wckr0ywv3vt5-Z-2" value="" style="outlineConnect=0;dashed=0;verticalLabelPosition=bottom;verticalAlign=top;align=center;html=1;shape=mxgraph.aws3.api_gateway;fillColor=#D9A741;gradientColor=none;" vertex="1" parent="WIyWlLk6GJQsqaUBKTNV-1">
          <mxGeometry x="190" y="324.4" width="76.5" height="93" as="geometry" />
        </mxCell>
        <mxCell id="wX1ky1Wckr0ywv3vt5-Z-3" value="CLIENT" style="text;html=1;strokeColor=none;fillColor=none;align=center;verticalAlign=middle;whiteSpace=wrap;rounded=0;" vertex="1" parent="WIyWlLk6GJQsqaUBKTNV-1">
          <mxGeometry x="68" y="409" width="60" height="30" as="geometry" />
        </mxCell>
        <mxCell id="wX1ky1Wckr0ywv3vt5-Z-4" value="API GATEWAY" style="text;html=1;strokeColor=none;fillColor=none;align=center;verticalAlign=middle;whiteSpace=wrap;rounded=0;" vertex="1" parent="WIyWlLk6GJQsqaUBKTNV-1">
          <mxGeometry x="198.25" y="417.4" width="60" height="30" as="geometry" />
        </mxCell>
        <mxCell id="wX1ky1Wckr0ywv3vt5-Z-8" style="edgeStyle=orthogonalEdgeStyle;rounded=0;orthogonalLoop=1;jettySize=auto;html=1;entryX=0;entryY=0.5;entryDx=0;entryDy=0;entryPerimeter=0;" edge="1" parent="WIyWlLk6GJQsqaUBKTNV-1" source="wX1ky1Wckr0ywv3vt5-Z-6" target="wX1ky1Wckr0ywv3vt5-Z-9">
          <mxGeometry relative="1" as="geometry">
            <mxPoint x="490" y="370.5" as="targetPoint" />
          </mxGeometry>
        </mxCell>
        <mxCell id="wX1ky1Wckr0ywv3vt5-Z-6" value="" style="outlineConnect=0;dashed=0;verticalLabelPosition=bottom;verticalAlign=top;align=center;html=1;shape=mxgraph.aws3.lambda;fillColor=#F58534;gradientColor=none;" vertex="1" parent="WIyWlLk6GJQsqaUBKTNV-1">
          <mxGeometry x="338" y="324" width="76.5" height="93" as="geometry" />
        </mxCell>
        <mxCell id="wX1ky1Wckr0ywv3vt5-Z-7" value="LAMBDA FUNCTION" style="text;html=1;strokeColor=none;fillColor=none;align=center;verticalAlign=middle;whiteSpace=wrap;rounded=0;" vertex="1" parent="WIyWlLk6GJQsqaUBKTNV-1">
          <mxGeometry x="346.25" y="417.4" width="60" height="30" as="geometry" />
        </mxCell>
        <mxCell id="wX1ky1Wckr0ywv3vt5-Z-9" value="" style="sketch=0;points=[[0,0,0],[0.25,0,0],[0.5,0,0],[0.75,0,0],[1,0,0],[0,1,0],[0.25,1,0],[0.5,1,0],[0.75,1,0],[1,1,0],[0,0.25,0],[0,0.5,0],[0,0.75,0],[1,0.25,0],[1,0.5,0],[1,0.75,0]];outlineConnect=0;fontColor=#232F3E;gradientColor=#4D72F3;gradientDirection=north;fillColor=#3334B9;strokeColor=#ffffff;dashed=0;verticalLabelPosition=bottom;verticalAlign=top;align=center;html=1;fontSize=12;fontStyle=0;aspect=fixed;shape=mxgraph.aws4.resourceIcon;resIcon=mxgraph.aws4.dynamodb;" vertex="1" parent="WIyWlLk6GJQsqaUBKTNV-1">
          <mxGeometry x="490" y="331" width="78" height="78" as="geometry" />
        </mxCell>
        <mxCell id="wX1ky1Wckr0ywv3vt5-Z-10" value="DYNAMODB" style="text;html=1;strokeColor=none;fillColor=none;align=center;verticalAlign=middle;whiteSpace=wrap;rounded=0;" vertex="1" parent="WIyWlLk6GJQsqaUBKTNV-1">
          <mxGeometry x="499" y="408.58" width="60" height="30" as="geometry" />
        </mxCell>
      </root>
    </mxGraphModel>
  </diagram>
</mxfile>
